<svg xmlns="http://www.w3.org/2000/svg" xmlns:xlink="http://www.w3.org/1999/xlink" width="40" zoomAndPan="magnify" viewBox="0 0 30 37.5" height="50" preserveAspectRatio="xMidYMid meet" version="1.2"><defs><clipPath id="a114e03d52"><path d="M 15.484375 13.007812 L 15.835938 13.007812 L 15.835938 13.261719 L 15.484375 13.261719 Z M 15.484375 13.007812 "/></clipPath><clipPath id="9c0fa0fb7b"><path d="M 15.8125 13.175781 C 15.148438 13.394531 15.738281 13.027344 15.738281 13.027344 "/></clipPath><clipPath id="fd3e2f4f5e"><path d="M 17.035156 8.566406 L 17.390625 8.566406 L 17.390625 8.894531 L 17.035156 8.894531 Z M 17.035156 8.566406 "/></clipPath><clipPath id="60ac9dd53f"><path d="M 17.367188 8.808594 C 16.703125 9.03125 17.292969 8.585938 17.292969 8.585938 "/></clipPath><clipPath id="b677e09e7a"><path d="M 0.878906 6.460938 L 29 6.460938 L 29 26.445312 L 0.878906 26.445312 Z M 0.878906 6.460938 "/></clipPath></defs><g id="26721ec10c"><g clip-rule="nonzero" clip-path="url(#a114e03d52)"><g clip-rule="nonzero" clip-path="url(#9c0fa0fb7b)"><path style=" stroke:none;fill-rule:nonzero;fill:#939c8f;fill-opacity:1;" d="M 12.1875 10.066406 L 18.851562 10.066406 L 18.851562 16.503906 L 12.1875 16.503906 Z M 12.1875 10.066406 "/></g></g><g clip-rule="nonzero" clip-path="url(#fd3e2f4f5e)"><g clip-rule="nonzero" clip-path="url(#60ac9dd53f)"><path style=" stroke:none;fill-rule:nonzero;fill:#939c8f;fill-opacity:1;" d="M 13.742188 5.625 L 20.40625 5.625 L 20.40625 12.0625 L 13.742188 12.0625 Z M 13.742188 5.625 "/></g></g><g clip-rule="nonzero" clip-path="url(#b677e09e7a)"><path style=" stroke:none;fill-rule:nonzero;fill:#939c8f;fill-opacity:1;" d="M 28.96875 6.46875 C 28.964844 6.667969 28.953125 6.867188 28.929688 7.0625 C 28.921875 7.164062 28.90625 7.261719 28.894531 7.359375 C 28.878906 7.460938 28.863281 7.558594 28.847656 7.65625 C 28.785156 8.050781 28.703125 8.441406 28.613281 8.828125 C 28.527344 9.214844 28.425781 9.601562 28.316406 9.984375 C 28.203125 10.363281 28.085938 10.742188 27.945312 11.117188 C 27.667969 11.859375 27.308594 12.5625 26.871094 13.226562 C 26.65625 13.558594 26.429688 13.886719 26.199219 14.210938 C 26.140625 14.292969 26.082031 14.375 26.027344 14.460938 C 26 14.5 25.972656 14.546875 25.945312 14.589844 C 25.917969 14.640625 25.894531 14.6875 25.875 14.738281 C 25.835938 14.835938 25.800781 14.933594 25.777344 15.035156 C 25.753906 15.136719 25.734375 15.234375 25.714844 15.335938 C 25.679688 15.535156 25.648438 15.730469 25.613281 15.921875 C 25.59375 16.019531 25.574219 16.113281 25.546875 16.207031 L 25.527344 16.273438 L 25.503906 16.339844 C 25.496094 16.363281 25.484375 16.390625 25.476562 16.414062 C 25.46875 16.441406 25.460938 16.46875 25.453125 16.496094 C 25.429688 16.605469 25.425781 16.714844 25.4375 16.824219 C 25.449219 16.929688 25.46875 17.03125 25.496094 17.132812 C 25.550781 17.332031 25.613281 17.519531 25.65625 17.707031 C 25.679688 17.800781 25.699219 17.894531 25.707031 17.988281 L 25.722656 18.136719 C 25.726562 18.191406 25.734375 18.246094 25.75 18.296875 C 25.804688 18.503906 25.898438 18.691406 26.03125 18.859375 C 26.152344 19.027344 26.289062 19.171875 26.398438 19.328125 C 26.421875 19.367188 26.445312 19.40625 26.464844 19.449219 L 26.503906 19.515625 L 26.523438 19.554688 C 26.53125 19.566406 26.539062 19.578125 26.546875 19.589844 C 26.605469 19.675781 26.675781 19.753906 26.757812 19.824219 C 26.910156 19.957031 27.070312 20.082031 27.238281 20.195312 C 27.40625 20.308594 27.570312 20.417969 27.730469 20.535156 C 27.769531 20.566406 27.808594 20.59375 27.84375 20.625 C 27.882812 20.652344 27.917969 20.6875 27.953125 20.71875 C 28.019531 20.789062 28.078125 20.863281 28.128906 20.945312 C 28.238281 21.105469 28.304688 21.285156 28.335938 21.476562 C 28.347656 21.570312 28.34375 21.664062 28.324219 21.757812 C 28.300781 21.847656 28.257812 21.929688 28.195312 22 C 28.164062 22.035156 28.125 22.0625 28.085938 22.085938 L 28.023438 22.121094 C 28.003906 22.132812 27.980469 22.140625 27.957031 22.148438 L 27.925781 22.160156 C 27.914062 22.164062 27.902344 22.164062 27.890625 22.167969 C 27.867188 22.171875 27.84375 22.179688 27.820312 22.183594 C 27.769531 22.1875 27.722656 22.191406 27.675781 22.1875 C 27.621094 22.183594 27.570312 22.179688 27.515625 22.167969 C 27.476562 22.128906 27.4375 22.089844 27.398438 22.054688 C 27.207031 21.886719 27.007812 21.738281 26.792969 21.601562 C 26.585938 21.464844 26.375 21.339844 26.1875 21.1875 C 25.996094 21.035156 25.816406 20.867188 25.621094 20.710938 C 25.523438 20.628906 25.417969 20.554688 25.3125 20.488281 C 25.257812 20.457031 25.203125 20.425781 25.144531 20.394531 C 25.117188 20.382812 25.085938 20.367188 25.0625 20.355469 C 25.035156 20.34375 25.011719 20.328125 24.988281 20.3125 C 24.886719 20.246094 24.804688 20.164062 24.734375 20.066406 C 24.664062 19.964844 24.601562 19.863281 24.546875 19.75 C 24.535156 19.726562 24.523438 19.699219 24.511719 19.675781 C 24.558594 19.585938 24.597656 19.492188 24.632812 19.398438 C 24.710938 19.164062 24.773438 18.921875 24.808594 18.675781 C 24.878906 18.191406 24.910156 17.703125 24.902344 17.210938 C 24.902344 17.085938 24.894531 16.964844 24.886719 16.839844 C 24.882812 16.78125 24.875 16.71875 24.871094 16.65625 C 24.859375 16.59375 24.851562 16.53125 24.84375 16.472656 C 24.800781 16.230469 24.757812 15.992188 24.714844 15.757812 C 24.671875 15.519531 24.628906 15.28125 24.601562 15.042969 C 24.570312 14.808594 24.558594 14.574219 24.574219 14.339844 C 24.609375 14.109375 24.691406 13.894531 24.816406 13.699219 C 24.945312 13.5 25.089844 13.3125 25.253906 13.140625 C 25.417969 12.96875 25.59375 12.800781 25.773438 12.644531 C 25.796875 12.621094 25.820312 12.605469 25.839844 12.582031 L 25.910156 12.511719 C 25.953125 12.464844 25.992188 12.414062 26.03125 12.367188 L 26.136719 12.214844 L 26.230469 12.054688 C 26.464844 11.625 26.664062 11.179688 26.828125 10.722656 C 26.992188 10.265625 27.132812 9.800781 27.25 9.328125 C 27.371094 8.855469 27.4375 8.375 27.449219 7.886719 C 27.4375 8.128906 27.40625 8.371094 27.359375 8.605469 C 27.316406 8.84375 27.261719 9.082031 27.199219 9.3125 C 27.070312 9.78125 26.914062 10.238281 26.738281 10.6875 C 26.566406 11.136719 26.359375 11.574219 26.121094 11.992188 L 26.027344 12.144531 L 25.925781 12.289062 C 25.886719 12.332031 25.851562 12.378906 25.8125 12.421875 L 25.75 12.480469 C 25.730469 12.5 25.703125 12.519531 25.683594 12.539062 C 25.496094 12.695312 25.316406 12.859375 25.144531 13.035156 C 24.96875 13.210938 24.8125 13.40625 24.675781 13.613281 C 24.53125 13.828125 24.441406 14.0625 24.402344 14.320312 C 24.382812 14.570312 24.390625 14.816406 24.421875 15.066406 C 24.449219 15.308594 24.488281 15.550781 24.527344 15.789062 C 24.570312 16.027344 24.613281 16.265625 24.652344 16.503906 C 24.664062 16.5625 24.671875 16.621094 24.679688 16.679688 C 24.683594 16.738281 24.691406 16.796875 24.695312 16.855469 C 24.703125 16.972656 24.707031 17.09375 24.707031 17.214844 C 24.714844 17.695312 24.683594 18.171875 24.613281 18.644531 C 24.578125 18.878906 24.523438 19.109375 24.445312 19.332031 C 24.433594 19.367188 24.421875 19.402344 24.40625 19.433594 C 24.402344 19.449219 24.394531 19.464844 24.386719 19.476562 C 24.355469 19.554688 24.316406 19.628906 24.265625 19.699219 C 24.285156 19.605469 24.296875 19.511719 24.300781 19.414062 C 24.300781 19.339844 24.300781 19.265625 24.300781 19.1875 C 24.296875 19.179688 24.296875 19.167969 24.296875 19.160156 C 24.296875 19.148438 24.296875 19.136719 24.296875 19.128906 C 24.292969 19.03125 24.292969 18.9375 24.285156 18.839844 C 24.277344 18.742188 24.253906 18.644531 24.210938 18.554688 C 24.1875 18.503906 24.15625 18.464844 24.117188 18.429688 C 24.078125 18.394531 24.03125 18.371094 23.976562 18.355469 C 23.878906 18.339844 23.78125 18.335938 23.683594 18.347656 C 23.585938 18.355469 23.492188 18.363281 23.398438 18.367188 C 23.304688 18.371094 23.207031 18.375 23.113281 18.375 C 23.023438 18.371094 22.929688 18.355469 22.832031 18.347656 C 22.726562 18.335938 22.628906 18.351562 22.535156 18.398438 C 22.488281 18.425781 22.453125 18.464844 22.425781 18.511719 C 22.398438 18.554688 22.378906 18.601562 22.367188 18.648438 C 22.320312 18.839844 22.308594 19.03125 22.335938 19.226562 C 22.34375 19.265625 22.347656 19.304688 22.355469 19.34375 C 22.328125 19.265625 22.300781 19.183594 22.273438 19.105469 C 22.238281 18.992188 22.203125 18.875 22.167969 18.761719 C 22.105469 18.535156 22.042969 18.308594 21.984375 18.082031 C 21.980469 18.054688 21.972656 18.03125 21.96875 18.007812 C 21.914062 17.792969 21.859375 17.574219 21.808594 17.355469 L 21.722656 17.003906 C 21.691406 16.890625 21.667969 16.773438 21.65625 16.65625 C 21.640625 16.417969 21.644531 16.179688 21.671875 15.941406 C 21.671875 15.929688 21.671875 15.917969 21.671875 15.90625 C 21.675781 15.871094 21.679688 15.832031 21.679688 15.796875 C 21.695312 15.601562 21.707031 15.410156 21.710938 15.214844 C 21.714844 14.988281 21.707031 14.761719 21.683594 14.535156 C 21.683594 14.519531 21.679688 14.5 21.679688 14.480469 C 21.675781 14.464844 21.675781 14.445312 21.671875 14.429688 C 21.644531 14.203125 21.601562 13.980469 21.535156 13.761719 C 21.464844 13.527344 21.378906 13.300781 21.277344 13.078125 C 21.175781 12.859375 21.066406 12.640625 20.960938 12.421875 C 20.855469 12.207031 20.765625 11.980469 20.703125 11.746094 C 20.757812 11.984375 20.835938 12.214844 20.9375 12.4375 C 21.03125 12.660156 21.136719 12.878906 21.230469 13.101562 C 21.324219 13.324219 21.402344 13.550781 21.464844 13.78125 C 21.523438 14.015625 21.5625 14.25 21.582031 14.488281 C 21.496094 14.542969 21.410156 14.597656 21.324219 14.644531 C 21.324219 14.644531 21.320312 14.644531 21.320312 14.644531 C 21.355469 14.59375 21.390625 14.542969 21.425781 14.492188 C 21.347656 14.554688 21.273438 14.625 21.210938 14.703125 L 21.207031 14.703125 C 21.144531 14.734375 21.082031 14.761719 21.015625 14.785156 C 20.910156 14.824219 20.800781 14.847656 20.6875 14.863281 C 20.578125 14.878906 20.460938 14.882812 20.347656 14.890625 C 20.117188 14.898438 19.882812 14.898438 19.648438 14.902344 C 19.878906 14.949219 20.113281 14.980469 20.347656 14.988281 C 20.464844 14.992188 20.585938 14.988281 20.703125 14.980469 C 20.824219 14.96875 20.941406 14.941406 21.058594 14.902344 C 21.058594 14.898438 21.058594 14.898438 21.0625 14.898438 C 21.058594 14.90625 21.050781 14.914062 21.046875 14.921875 C 20.996094 15.003906 20.953125 15.089844 20.914062 15.179688 C 20.894531 15.226562 20.878906 15.269531 20.863281 15.316406 L 20.839844 15.378906 C 20.832031 15.398438 20.824219 15.417969 20.8125 15.4375 C 20.769531 15.515625 20.71875 15.59375 20.664062 15.664062 C 20.613281 15.742188 20.554688 15.8125 20.496094 15.886719 C 20.375 16.03125 20.253906 16.171875 20.128906 16.316406 C 20.289062 16.207031 20.433594 16.085938 20.566406 15.949219 C 20.707031 15.816406 20.824219 15.664062 20.921875 15.492188 C 20.933594 15.46875 20.945312 15.449219 20.953125 15.421875 L 20.96875 15.386719 L 20.980469 15.355469 C 20.992188 15.308594 21.007812 15.265625 21.023438 15.222656 C 21.054688 15.136719 21.09375 15.050781 21.132812 14.96875 C 21.152344 14.925781 21.175781 14.882812 21.199219 14.839844 C 21.339844 14.777344 21.46875 14.699219 21.589844 14.609375 C 21.605469 14.808594 21.605469 15.007812 21.601562 15.210938 C 21.59375 15.449219 21.570312 15.691406 21.546875 15.933594 C 21.546875 15.9375 21.546875 15.941406 21.542969 15.949219 C 21.496094 16.003906 21.449219 16.0625 21.402344 16.121094 C 21.316406 16.234375 21.242188 16.351562 21.175781 16.476562 C 21.109375 16.59375 21.035156 16.707031 20.953125 16.8125 C 20.871094 16.921875 20.78125 17.023438 20.691406 17.125 C 20.601562 17.230469 20.503906 17.324219 20.410156 17.425781 C 20.21875 17.621094 20.019531 17.808594 19.808594 17.988281 C 20.050781 17.847656 20.273438 17.683594 20.476562 17.496094 C 20.6875 17.308594 20.878906 17.105469 21.050781 16.886719 C 21.140625 16.773438 21.214844 16.65625 21.28125 16.53125 L 21.328125 16.4375 C 21.339844 16.410156 21.359375 16.378906 21.375 16.351562 C 21.410156 16.292969 21.445312 16.234375 21.480469 16.179688 C 21.496094 16.15625 21.511719 16.132812 21.53125 16.109375 C 21.511719 16.296875 21.507812 16.480469 21.515625 16.667969 C 21.527344 16.792969 21.550781 16.914062 21.582031 17.035156 L 21.660156 17.390625 C 21.703125 17.585938 21.746094 17.78125 21.789062 17.976562 C 21.707031 17.960938 21.621094 17.949219 21.53125 17.941406 C 21.34375 17.933594 21.15625 17.953125 20.96875 17.992188 C 20.789062 18.03125 20.609375 18.082031 20.433594 18.140625 C 20.257812 18.195312 20.082031 18.257812 19.910156 18.316406 C 19.8125 18.347656 19.714844 18.378906 19.617188 18.40625 C 19.574219 18.394531 19.53125 18.386719 19.488281 18.386719 C 19.425781 18.382812 19.363281 18.390625 19.300781 18.410156 C 19.183594 18.441406 19.070312 18.484375 18.960938 18.539062 C 18.914062 18.5625 18.871094 18.589844 18.828125 18.621094 C 18.796875 18.621094 18.761719 18.625 18.730469 18.625 L 18.003906 18.664062 L 17.644531 18.683594 C 17.523438 18.6875 17.402344 18.691406 17.277344 18.703125 C 17.0625 18.726562 16.859375 18.777344 16.660156 18.859375 C 16.671875 18.839844 16.683594 18.820312 16.691406 18.796875 C 16.707031 18.769531 16.71875 18.742188 16.726562 18.714844 C 16.769531 18.597656 16.777344 18.476562 16.753906 18.355469 C 16.726562 18.234375 16.671875 18.128906 16.589844 18.035156 C 16.566406 18.011719 16.542969 17.988281 16.515625 17.96875 C 16.488281 17.953125 16.460938 17.9375 16.429688 17.929688 C 16.40625 17.921875 16.386719 17.914062 16.367188 17.90625 C 16.511719 17.464844 16.667969 17.03125 16.832031 16.59375 C 16.921875 16.347656 17.015625 16.089844 17.09375 15.832031 C 17.171875 15.578125 17.242188 15.320312 17.3125 15.0625 C 17.382812 14.804688 17.449219 14.550781 17.527344 14.296875 C 17.601562 14.046875 17.695312 13.800781 17.800781 13.5625 C 17.832031 13.503906 17.855469 13.445312 17.890625 13.386719 C 17.921875 13.324219 17.949219 13.265625 17.980469 13.207031 C 18.039062 13.085938 18.097656 12.964844 18.152344 12.84375 C 18.265625 12.601562 18.371094 12.355469 18.476562 12.113281 C 18.6875 11.621094 18.890625 11.128906 19.097656 10.640625 C 19.148438 10.515625 19.199219 10.394531 19.253906 10.277344 C 19.3125 10.160156 19.375 10.042969 19.441406 9.929688 C 19.574219 9.699219 19.714844 9.472656 19.859375 9.25 C 20.140625 8.796875 20.425781 8.347656 20.695312 7.890625 C 20.972656 7.433594 21.214844 6.957031 21.425781 6.46875 C 20.972656 7.433594 20.363281 8.308594 19.773438 9.195312 C 19.628906 9.417969 19.484375 9.644531 19.34375 9.871094 C 19.277344 9.988281 19.210938 10.105469 19.148438 10.222656 C 19.085938 10.347656 19.035156 10.46875 18.980469 10.589844 C 18.765625 11.078125 18.554688 11.566406 18.335938 12.050781 C 18.226562 12.292969 18.117188 12.535156 18 12.773438 C 17.945312 12.894531 17.886719 13.011719 17.828125 13.128906 C 17.765625 13.25 17.703125 13.363281 17.644531 13.488281 C 17.53125 13.734375 17.433594 13.984375 17.355469 14.242188 C 17.273438 14.5 17.199219 14.757812 17.128906 15.011719 C 17.058594 15.269531 16.988281 15.527344 16.910156 15.777344 C 16.832031 16.03125 16.742188 16.277344 16.648438 16.527344 C 16.484375 16.964844 16.324219 17.402344 16.175781 17.847656 C 16.152344 17.839844 16.128906 17.832031 16.109375 17.824219 C 16.085938 17.816406 16.0625 17.804688 16.039062 17.792969 C 16.015625 17.78125 15.996094 17.765625 15.972656 17.753906 C 15.765625 17.628906 15.542969 17.5625 15.300781 17.5625 C 15.269531 17.5625 15.242188 17.5625 15.210938 17.5625 L 15.167969 17.5625 L 15.121094 17.570312 C 15.089844 17.574219 15.058594 17.578125 15.03125 17.585938 C 15 17.59375 14.972656 17.605469 14.941406 17.613281 C 14.832031 17.660156 14.730469 17.714844 14.632812 17.78125 C 14.445312 17.914062 14.269531 18.0625 14.109375 18.226562 C 14.03125 18.308594 13.953125 18.390625 13.878906 18.476562 C 13.800781 18.5625 13.730469 18.652344 13.664062 18.746094 C 13.398438 19.113281 13.164062 19.5 12.960938 19.90625 C 12.921875 19.992188 12.878906 20.082031 12.84375 20.167969 C 12.515625 20.167969 12.191406 20.132812 11.875 20.058594 C 11.640625 20.007812 11.414062 19.933594 11.195312 19.84375 C 10.976562 19.753906 10.769531 19.640625 10.574219 19.503906 L 10.277344 19.292969 C 10.179688 19.222656 10.078125 19.15625 9.976562 19.089844 L 9.371094 18.695312 C 9.167969 18.5625 8.96875 18.429688 8.777344 18.289062 C 8.683594 18.214844 8.589844 18.140625 8.503906 18.0625 L 8.4375 18.007812 C 8.417969 17.988281 8.394531 17.964844 8.375 17.945312 L 8.3125 17.882812 L 8.253906 17.816406 C 7.9375 17.460938 7.679688 17.066406 7.472656 16.636719 C 7.367188 16.425781 7.28125 16.203125 7.207031 15.976562 C 7.171875 15.867188 7.144531 15.75 7.117188 15.636719 L 7.085938 15.460938 L 7.054688 15.28125 C 6.972656 14.804688 6.863281 14.332031 6.757812 13.863281 L 6.59375 13.15625 C 6.570312 13.039062 6.542969 12.917969 6.519531 12.800781 C 6.496094 12.683594 6.476562 12.566406 6.457031 12.445312 C 6.472656 12.6875 6.5 12.925781 6.539062 13.164062 C 6.578125 13.40625 6.621094 13.644531 6.660156 13.882812 C 6.746094 14.355469 6.832031 14.832031 6.902344 15.308594 L 6.925781 15.484375 L 6.953125 15.667969 C 6.976562 15.789062 7.007812 15.910156 7.042969 16.027344 C 7.109375 16.265625 7.199219 16.496094 7.300781 16.71875 C 7.40625 16.941406 7.527344 17.15625 7.660156 17.363281 C 7.792969 17.570312 7.945312 17.765625 8.109375 17.953125 L 8.171875 18.019531 L 8.238281 18.085938 C 8.257812 18.109375 8.28125 18.128906 8.304688 18.152344 L 8.375 18.214844 C 8.46875 18.296875 8.5625 18.371094 8.664062 18.441406 C 8.859375 18.589844 9.0625 18.726562 9.269531 18.855469 L 9.882812 19.238281 C 10.085938 19.367188 10.285156 19.496094 10.488281 19.632812 C 10.90625 19.902344 11.363281 20.074219 11.855469 20.15625 C 12.179688 20.210938 12.5 20.226562 12.828125 20.207031 C 12.828125 20.210938 12.824219 20.214844 12.824219 20.21875 L 12.691406 20.523438 C 12.605469 20.730469 12.515625 20.933594 12.433594 21.148438 C 12.347656 21.363281 12.285156 21.582031 12.242188 21.808594 C 12.207031 22.039062 12.199219 22.269531 12.21875 22.503906 C 12.234375 22.730469 12.273438 22.957031 12.304688 23.171875 C 12.316406 23.277344 12.320312 23.386719 12.3125 23.492188 C 12.3125 23.546875 12.308594 23.605469 12.308594 23.664062 C 12.308594 23.691406 12.308594 23.722656 12.3125 23.753906 L 12.316406 23.839844 C 12.335938 24.066406 12.371094 24.292969 12.421875 24.515625 C 12.472656 24.742188 12.542969 24.960938 12.640625 25.167969 C 12.667969 25.222656 12.691406 25.273438 12.722656 25.324219 L 12.769531 25.402344 L 12.792969 25.4375 L 12.820312 25.472656 C 12.851562 25.523438 12.890625 25.570312 12.933594 25.613281 C 12.953125 25.636719 12.976562 25.65625 13 25.675781 C 13.023438 25.699219 13.046875 25.714844 13.070312 25.734375 C 13.109375 25.765625 13.152344 25.792969 13.195312 25.820312 C 12.011719 25.652344 10.820312 25.5 9.617188 25.441406 C 8.859375 25.40625 8.097656 25.394531 7.351562 25.304688 C 6.976562 25.265625 6.609375 25.195312 6.25 25.09375 C 5.890625 24.988281 5.558594 24.828125 5.246094 24.625 C 4.621094 24.21875 4.082031 23.679688 3.628906 23.082031 C 3.398438 22.78125 3.195312 22.46875 3.015625 22.136719 C 2.929688 21.972656 2.84375 21.800781 2.761719 21.632812 C 2.679688 21.460938 2.597656 21.289062 2.515625 21.117188 C 2.195312 20.429688 1.886719 19.738281 1.601562 19.035156 C 1.460938 18.683594 1.324219 18.328125 1.199219 17.96875 L 1.105469 17.699219 L 1.023438 17.429688 L 0.945312 17.152344 C 0.921875 17.0625 0.902344 16.96875 0.878906 16.875 C 0.941406 17.253906 1.03125 17.621094 1.148438 17.984375 C 1.257812 18.351562 1.382812 18.710938 1.511719 19.070312 C 1.777344 19.78125 2.0625 20.488281 2.375 21.183594 C 2.53125 21.53125 2.6875 21.875 2.863281 22.21875 C 3.042969 22.558594 3.246094 22.886719 3.476562 23.195312 C 3.707031 23.503906 3.960938 23.792969 4.234375 24.0625 C 4.511719 24.335938 4.8125 24.578125 5.136719 24.789062 L 5.261719 24.867188 C 5.300781 24.894531 5.34375 24.917969 5.386719 24.941406 C 5.429688 24.964844 5.472656 24.988281 5.515625 25.011719 L 5.644531 25.074219 C 5.734375 25.117188 5.824219 25.148438 5.917969 25.1875 C 6.007812 25.222656 6.101562 25.25 6.191406 25.28125 C 6.566406 25.382812 6.945312 25.457031 7.328125 25.492188 C 8.089844 25.574219 8.855469 25.578125 9.613281 25.597656 C 9.992188 25.605469 10.371094 25.628906 10.75 25.652344 C 11.125 25.675781 11.503906 25.707031 11.882812 25.742188 C 12.261719 25.773438 12.640625 25.8125 13.019531 25.847656 L 13.289062 25.875 C 13.417969 25.945312 13.550781 26.003906 13.683594 26.054688 C 14.113281 26.210938 14.550781 26.316406 15.003906 26.375 C 15.226562 26.410156 15.453125 26.429688 15.679688 26.4375 C 15.910156 26.4375 16.136719 26.421875 16.359375 26.386719 C 16.585938 26.351562 16.804688 26.296875 17.023438 26.253906 C 17.128906 26.234375 17.238281 26.214844 17.351562 26.191406 C 17.464844 26.167969 17.574219 26.140625 17.679688 26.105469 C 17.898438 26.042969 18.109375 25.964844 18.316406 25.871094 C 18.367188 25.851562 18.417969 25.824219 18.46875 25.800781 C 18.519531 25.777344 18.570312 25.746094 18.617188 25.714844 C 18.710938 25.644531 18.792969 25.566406 18.863281 25.472656 C 18.933594 25.386719 18.996094 25.289062 19.046875 25.1875 C 19.101562 25.085938 19.132812 24.976562 19.144531 24.863281 C 19.160156 24.691406 19.152344 24.519531 19.164062 24.351562 C 19.210938 24.347656 19.253906 24.339844 19.292969 24.320312 C 19.332031 24.300781 19.363281 24.277344 19.394531 24.246094 C 19.417969 24.222656 19.441406 24.191406 19.460938 24.164062 C 19.496094 24.109375 19.535156 24.058594 19.578125 24.011719 C 19.628906 23.957031 19.671875 23.894531 19.699219 23.828125 C 19.761719 23.703125 19.804688 23.570312 19.828125 23.433594 C 19.859375 23.292969 19.863281 23.15625 19.84375 23.015625 L 19.835938 22.960938 L 19.820312 22.914062 C 19.8125 22.878906 19.800781 22.84375 19.785156 22.8125 C 19.753906 22.742188 19.714844 22.6875 19.660156 22.636719 C 19.609375 22.589844 19.554688 22.546875 19.496094 22.507812 C 19.511719 22.507812 19.523438 22.503906 19.535156 22.5 C 19.574219 22.492188 19.613281 22.480469 19.644531 22.460938 C 19.714844 22.429688 19.773438 22.386719 19.824219 22.332031 C 19.878906 22.277344 19.921875 22.222656 19.957031 22.15625 C 19.976562 22.125 19.992188 22.09375 20.007812 22.0625 C 20.015625 22.042969 20.019531 22.027344 20.027344 22.007812 C 20.03125 21.992188 20.039062 21.972656 20.042969 21.957031 C 20.058594 21.886719 20.070312 21.816406 20.074219 21.746094 C 20.078125 21.679688 20.082031 21.609375 20.082031 21.539062 C 20.085938 21.4375 20.078125 21.332031 20.066406 21.230469 C 20.074219 21.234375 20.082031 21.242188 20.089844 21.25 C 20.210938 21.386719 20.339844 21.519531 20.46875 21.648438 C 20.597656 21.773438 20.730469 21.902344 20.855469 22.03125 C 20.980469 22.160156 21.101562 22.292969 21.222656 22.429688 C 21.34375 22.566406 21.464844 22.699219 21.589844 22.835938 C 21.710938 22.972656 21.84375 23.101562 21.980469 23.226562 C 22.015625 23.257812 22.054688 23.285156 22.089844 23.316406 C 22.125 23.34375 22.160156 23.371094 22.195312 23.398438 C 22.261719 23.457031 22.332031 23.515625 22.398438 23.574219 L 22.804688 23.941406 C 22.9375 24.0625 23.074219 24.183594 23.21875 24.300781 C 23.363281 24.417969 23.519531 24.519531 23.671875 24.621094 C 23.976562 24.820312 24.292969 25.007812 24.582031 25.214844 C 24.621094 25.238281 24.65625 25.265625 24.6875 25.292969 C 24.722656 25.316406 24.753906 25.34375 24.78125 25.375 C 24.84375 25.4375 24.90625 25.5 24.964844 25.570312 C 25.023438 25.636719 25.085938 25.707031 25.15625 25.773438 C 25.195312 25.808594 25.234375 25.84375 25.273438 25.871094 C 25.328125 25.910156 25.386719 25.929688 25.449219 25.9375 C 25.488281 25.941406 25.527344 25.933594 25.5625 25.917969 L 25.625 25.890625 C 25.667969 25.875 25.710938 25.855469 25.753906 25.832031 C 25.84375 25.792969 25.925781 25.738281 26.003906 25.675781 C 26.082031 25.609375 26.148438 25.53125 26.199219 25.441406 C 26.25 25.351562 26.285156 25.257812 26.304688 25.160156 C 26.3125 25.109375 26.324219 25.0625 26.328125 25.011719 C 26.332031 24.964844 26.335938 24.914062 26.335938 24.867188 C 26.335938 24.769531 26.328125 24.675781 26.3125 24.578125 C 26.296875 24.484375 26.273438 24.390625 26.238281 24.296875 C 26.203125 24.207031 26.160156 24.121094 26.109375 24.039062 C 26.007812 23.878906 25.890625 23.734375 25.761719 23.597656 L 25.578125 23.398438 C 25.511719 23.328125 25.449219 23.261719 25.386719 23.195312 C 25.363281 23.175781 25.34375 23.15625 25.324219 23.136719 C 25.34375 23.144531 25.363281 23.152344 25.382812 23.160156 C 25.609375 23.25 25.835938 23.34375 26.050781 23.457031 C 26.269531 23.566406 26.484375 23.695312 26.710938 23.804688 C 26.828125 23.859375 26.949219 23.90625 27.074219 23.941406 C 27.207031 23.980469 27.34375 23.992188 27.480469 23.976562 C 27.628906 23.949219 27.753906 23.886719 27.859375 23.78125 C 27.964844 23.679688 28.035156 23.5625 28.074219 23.421875 C 28.082031 23.386719 28.089844 23.351562 28.09375 23.3125 C 28.097656 23.277344 28.09375 23.242188 28.09375 23.207031 C 28.089844 23.171875 28.085938 23.136719 28.082031 23.101562 C 28.074219 23.070312 28.066406 23.035156 28.058594 23.003906 C 28.015625 22.875 27.960938 22.757812 27.890625 22.644531 C 27.820312 22.535156 27.746094 22.429688 27.664062 22.332031 C 27.636719 22.296875 27.605469 22.261719 27.574219 22.230469 C 27.605469 22.234375 27.636719 22.238281 27.671875 22.242188 C 27.890625 22.265625 28.085938 22.203125 28.25 22.050781 C 28.324219 21.976562 28.378906 21.882812 28.40625 21.777344 C 28.433594 21.675781 28.441406 21.570312 28.433594 21.464844 C 28.40625 21.257812 28.339844 21.0625 28.226562 20.882812 C 28.171875 20.792969 28.109375 20.710938 28.039062 20.636719 C 28.003906 20.597656 27.964844 20.5625 27.925781 20.527344 C 27.886719 20.496094 27.847656 20.460938 27.808594 20.433594 C 27.648438 20.308594 27.484375 20.195312 27.324219 20.078125 C 27.160156 19.964844 27.007812 19.84375 26.863281 19.710938 C 26.792969 19.648438 26.730469 19.578125 26.679688 19.5 C 26.671875 19.492188 26.667969 19.480469 26.660156 19.472656 L 26.648438 19.441406 L 26.632812 19.414062 L 26.613281 19.378906 C 26.589844 19.328125 26.566406 19.28125 26.535156 19.238281 C 26.421875 19.0625 26.285156 18.914062 26.171875 18.757812 C 26.054688 18.609375 25.972656 18.441406 25.925781 18.257812 C 25.914062 18.210938 25.90625 18.167969 25.902344 18.121094 L 25.898438 18.050781 L 25.894531 17.972656 C 25.882812 17.867188 25.867188 17.765625 25.84375 17.664062 C 25.796875 17.464844 25.730469 17.273438 25.683594 17.085938 C 25.632812 16.898438 25.605469 16.710938 25.644531 16.539062 C 25.648438 16.519531 25.652344 16.5 25.660156 16.476562 C 25.667969 16.457031 25.675781 16.4375 25.683594 16.410156 L 25.710938 16.335938 L 25.734375 16.261719 C 25.761719 16.160156 25.785156 16.0625 25.804688 15.960938 C 25.84375 15.761719 25.875 15.566406 25.910156 15.371094 C 25.929688 15.273438 25.949219 15.179688 25.972656 15.085938 C 25.980469 15.039062 25.996094 14.992188 26.007812 14.945312 C 26.023438 14.902344 26.035156 14.855469 26.054688 14.8125 C 26.074219 14.769531 26.089844 14.730469 26.113281 14.691406 C 26.140625 14.648438 26.164062 14.609375 26.191406 14.570312 C 26.246094 14.488281 26.300781 14.40625 26.359375 14.324219 C 26.585938 13.996094 26.816406 13.667969 27.027344 13.328125 C 27.457031 12.648438 27.835938 11.929688 28.09375 11.167969 C 28.351562 10.410156 28.558594 9.636719 28.710938 8.847656 C 28.785156 8.453125 28.851562 8.058594 28.902344 7.664062 C 28.957031 7.265625 28.980469 6.867188 28.96875 6.46875 Z M 22.421875 18.664062 C 22.445312 18.578125 22.492188 18.507812 22.566406 18.453125 C 22.648438 18.417969 22.738281 18.40625 22.828125 18.417969 C 22.917969 18.425781 23.015625 18.441406 23.113281 18.445312 C 23.210938 18.449219 23.304688 18.445312 23.402344 18.441406 C 23.496094 18.4375 23.59375 18.429688 23.6875 18.421875 C 23.78125 18.410156 23.871094 18.410156 23.960938 18.425781 C 24.003906 18.433594 24.042969 18.453125 24.074219 18.480469 C 24.109375 18.507812 24.132812 18.542969 24.152344 18.582031 C 24.191406 18.667969 24.214844 18.753906 24.226562 18.847656 C 24.246094 19.035156 24.257812 19.226562 24.261719 19.414062 C 24.265625 19.523438 24.257812 19.632812 24.238281 19.738281 C 24.195312 19.796875 24.148438 19.847656 24.089844 19.890625 C 23.910156 20.035156 23.707031 20.105469 23.476562 20.105469 C 23.246094 20.105469 23.03125 20.046875 22.832031 19.929688 C 22.773438 19.890625 22.714844 19.847656 22.660156 19.800781 C 22.644531 19.789062 22.628906 19.773438 22.617188 19.761719 C 22.53125 19.679688 22.460938 19.582031 22.410156 19.476562 C 22.390625 19.394531 22.378906 19.308594 22.375 19.222656 C 22.355469 19.035156 22.371094 18.847656 22.421875 18.664062 Z M 17.289062 18.800781 C 17.40625 18.785156 17.527344 18.777344 17.648438 18.769531 C 17.769531 18.757812 17.890625 18.746094 18.011719 18.734375 L 18.714844 18.667969 L 18.734375 18.664062 C 18.746094 18.664062 18.761719 18.660156 18.777344 18.660156 L 18.796875 18.660156 C 18.886719 18.652344 18.980469 18.644531 19.070312 18.636719 C 19.078125 18.636719 19.085938 18.636719 19.09375 18.636719 C 19.214844 18.625 19.335938 18.617188 19.457031 18.621094 C 19.367188 18.613281 19.28125 18.613281 19.191406 18.613281 C 19.078125 18.613281 18.96875 18.617188 18.855469 18.621094 C 18.894531 18.597656 18.929688 18.578125 18.96875 18.5625 C 19.078125 18.511719 19.191406 18.472656 19.308594 18.449219 C 19.367188 18.433594 19.425781 18.429688 19.484375 18.433594 C 19.492188 18.433594 19.5 18.4375 19.507812 18.4375 C 19.558594 18.445312 19.605469 18.457031 19.648438 18.476562 C 19.664062 18.484375 19.679688 18.492188 19.695312 18.5 C 19.78125 18.550781 19.859375 18.609375 19.929688 18.683594 C 20.097656 18.855469 20.21875 19.058594 20.292969 19.285156 C 20.332031 19.398438 20.367188 19.511719 20.394531 19.628906 C 20.402344 19.65625 20.40625 19.683594 20.414062 19.714844 C 20.417969 19.742188 20.421875 19.769531 20.425781 19.796875 C 20.425781 19.824219 20.425781 19.851562 20.425781 19.878906 C 20.421875 19.90625 20.417969 19.933594 20.410156 19.960938 C 20.382812 20.070312 20.335938 20.175781 20.273438 20.273438 C 20.214844 20.371094 20.140625 20.453125 20.046875 20.523438 C 20.007812 20.554688 19.960938 20.578125 19.910156 20.59375 C 19.882812 20.601562 19.859375 20.605469 19.832031 20.609375 C 19.804688 20.609375 19.777344 20.609375 19.75 20.609375 C 19.707031 20.609375 19.664062 20.605469 19.617188 20.597656 C 19.589844 20.59375 19.5625 20.589844 19.535156 20.585938 C 19.515625 20.582031 19.496094 20.578125 19.476562 20.574219 C 19.394531 20.550781 19.308594 20.535156 19.222656 20.523438 C 19.210938 20.523438 19.199219 20.523438 19.1875 20.519531 C 19.152344 20.519531 19.117188 20.511719 19.085938 20.507812 L 18.683594 20.449219 C 18.414062 20.410156 18.148438 20.367188 17.878906 20.324219 C 17.746094 20.304688 17.613281 20.28125 17.480469 20.253906 C 17.367188 20.234375 17.25 20.214844 17.132812 20.1875 C 17.128906 20.1875 17.128906 20.1875 17.128906 20.1875 C 17.050781 20.175781 16.976562 20.160156 16.898438 20.144531 C 16.785156 20.121094 16.671875 20.089844 16.5625 20.046875 C 16.527344 20.03125 16.496094 20.015625 16.460938 19.996094 C 16.351562 19.929688 16.285156 19.835938 16.269531 19.707031 C 16.261719 19.652344 16.261719 19.597656 16.269531 19.542969 C 16.277344 19.488281 16.289062 19.433594 16.304688 19.378906 C 16.308594 19.363281 16.3125 19.347656 16.320312 19.335938 L 16.332031 19.300781 C 16.34375 19.273438 16.355469 19.25 16.371094 19.230469 C 16.382812 19.210938 16.394531 19.195312 16.410156 19.179688 C 16.4375 19.152344 16.46875 19.125 16.496094 19.09375 C 16.535156 19.0625 16.574219 19.035156 16.621094 19.007812 C 16.832031 18.898438 17.054688 18.828125 17.289062 18.800781 Z M 19.113281 24.859375 C 19.097656 24.96875 19.0625 25.074219 19.011719 25.167969 C 18.957031 25.265625 18.894531 25.355469 18.820312 25.441406 C 18.75 25.523438 18.671875 25.597656 18.582031 25.660156 C 18.488281 25.71875 18.390625 25.765625 18.285156 25.804688 C 18.078125 25.886719 17.871094 25.957031 17.65625 26.011719 C 17.546875 26.042969 17.441406 26.066406 17.332031 26.085938 C 17.222656 26.109375 17.113281 26.121094 17 26.144531 C 16.78125 26.179688 16.5625 26.226562 16.34375 26.253906 C 16.125 26.285156 15.90625 26.296875 15.683594 26.292969 C 15.464844 26.28125 15.246094 26.257812 15.027344 26.222656 C 14.808594 26.1875 14.589844 26.144531 14.375 26.089844 C 14.199219 26.042969 14.019531 25.992188 13.847656 25.929688 C 13.824219 25.921875 13.800781 25.914062 13.777344 25.902344 C 13.769531 25.898438 13.757812 25.894531 13.746094 25.890625 C 13.542969 25.816406 13.355469 25.71875 13.179688 25.589844 C 13.160156 25.574219 13.136719 25.558594 13.121094 25.539062 C 13.101562 25.523438 13.082031 25.507812 13.066406 25.488281 C 13.03125 25.449219 12.996094 25.410156 12.96875 25.367188 L 12.945312 25.335938 L 12.925781 25.300781 L 12.882812 25.234375 C 12.859375 25.1875 12.835938 25.136719 12.8125 25.089844 C 12.722656 24.890625 12.65625 24.683594 12.609375 24.472656 C 12.5625 24.257812 12.527344 24.042969 12.511719 23.824219 L 12.507812 23.742188 C 12.503906 23.714844 12.503906 23.691406 12.503906 23.664062 C 12.503906 23.609375 12.507812 23.554688 12.507812 23.5 C 12.515625 23.382812 12.511719 23.265625 12.5 23.148438 C 12.46875 22.921875 12.433594 22.707031 12.417969 22.488281 C 12.398438 22.273438 12.402344 22.058594 12.433594 21.84375 C 12.472656 21.628906 12.535156 21.417969 12.613281 21.21875 C 12.691406 21.011719 12.78125 20.804688 12.867188 20.601562 L 13 20.289062 C 13.015625 20.253906 13.027344 20.222656 13.042969 20.1875 C 13.046875 20.179688 13.046875 20.171875 13.050781 20.164062 C 13.078125 20.105469 13.105469 20.046875 13.132812 19.988281 C 13.324219 19.589844 13.550781 19.207031 13.808594 18.847656 C 13.871094 18.757812 13.9375 18.667969 14.007812 18.589844 C 14.078125 18.503906 14.152344 18.421875 14.230469 18.34375 C 14.378906 18.183594 14.542969 18.039062 14.71875 17.910156 C 14.804688 17.847656 14.898438 17.796875 14.996094 17.753906 C 15.019531 17.746094 15.042969 17.738281 15.070312 17.730469 C 15.09375 17.722656 15.117188 17.71875 15.140625 17.714844 L 15.175781 17.710938 L 15.21875 17.707031 C 15.246094 17.707031 15.269531 17.707031 15.296875 17.707031 C 15.515625 17.703125 15.714844 17.753906 15.902344 17.863281 C 15.929688 17.878906 15.953125 17.894531 15.980469 17.910156 C 16.007812 17.921875 16.039062 17.933594 16.066406 17.941406 C 16.089844 17.953125 16.113281 17.957031 16.136719 17.964844 C 16.167969 17.976562 16.199219 17.984375 16.230469 17.992188 C 16.261719 18 16.296875 18.011719 16.328125 18.019531 C 16.347656 18.027344 16.367188 18.03125 16.386719 18.039062 C 16.410156 18.046875 16.429688 18.054688 16.453125 18.066406 C 16.472656 18.082031 16.488281 18.097656 16.503906 18.113281 C 16.578125 18.191406 16.625 18.277344 16.648438 18.378906 C 16.671875 18.484375 16.667969 18.582031 16.636719 18.683594 C 16.601562 18.773438 16.558594 18.859375 16.507812 18.941406 C 16.410156 18.996094 16.332031 19.070312 16.269531 19.160156 C 16.253906 19.179688 16.242188 19.199219 16.230469 19.222656 C 16.140625 19.28125 16.046875 19.328125 15.941406 19.363281 C 15.871094 19.386719 15.800781 19.40625 15.730469 19.421875 C 15.707031 19.425781 15.683594 19.433594 15.65625 19.4375 C 15.550781 19.457031 15.441406 19.464844 15.328125 19.460938 C 15.21875 19.460938 15.109375 19.445312 15.003906 19.414062 C 14.894531 19.382812 14.796875 19.335938 14.703125 19.277344 C 14.605469 19.21875 14.523438 19.144531 14.453125 19.054688 C 14.519531 19.148438 14.597656 19.226562 14.691406 19.289062 C 14.882812 19.425781 15.09375 19.496094 15.328125 19.503906 C 15.441406 19.511719 15.554688 19.503906 15.667969 19.488281 C 15.683594 19.484375 15.699219 19.484375 15.71875 19.480469 C 15.789062 19.46875 15.855469 19.453125 15.925781 19.433594 C 16.015625 19.40625 16.101562 19.375 16.1875 19.332031 C 16.183594 19.335938 16.183594 19.335938 16.183594 19.339844 C 16.164062 19.398438 16.148438 19.460938 16.140625 19.527344 C 16.128906 19.59375 16.128906 19.660156 16.136719 19.726562 C 16.144531 19.792969 16.167969 19.859375 16.203125 19.921875 L 16.214844 19.941406 C 16.109375 19.921875 16.007812 19.90625 15.902344 19.894531 C 15.878906 19.890625 15.859375 19.890625 15.839844 19.886719 C 15.773438 19.878906 15.710938 19.875 15.644531 19.871094 C 15.59375 19.871094 15.542969 19.867188 15.488281 19.871094 C 15.417969 19.875 15.347656 19.882812 15.28125 19.898438 C 15.210938 19.917969 15.140625 19.941406 15.078125 19.972656 C 15.015625 20.007812 14.960938 20.046875 14.910156 20.097656 C 14.777344 20.097656 14.644531 20.097656 14.511719 20.089844 C 14.363281 20.082031 14.214844 20.066406 14.066406 20.039062 C 13.917969 20.011719 13.769531 19.96875 13.628906 19.914062 C 13.757812 20.007812 13.898438 20.074219 14.046875 20.113281 C 14.199219 20.15625 14.351562 20.179688 14.507812 20.1875 C 14.617188 20.195312 14.726562 20.195312 14.835938 20.1875 C 14.816406 20.21875 14.796875 20.253906 14.78125 20.289062 C 14.75 20.355469 14.730469 20.425781 14.722656 20.5 C 14.710938 20.566406 14.707031 20.636719 14.703125 20.707031 C 14.695312 20.851562 14.714844 20.996094 14.769531 21.132812 C 14.808594 21.234375 14.875 21.316406 14.960938 21.382812 C 14.941406 21.394531 14.917969 21.402344 14.898438 21.414062 C 14.867188 21.429688 14.835938 21.449219 14.804688 21.46875 C 14.746094 21.511719 14.691406 21.566406 14.652344 21.628906 C 14.609375 21.691406 14.582031 21.757812 14.566406 21.828125 C 14.546875 21.898438 14.539062 21.96875 14.535156 22.042969 C 14.53125 22.1875 14.5625 22.328125 14.625 22.460938 C 14.652344 22.527344 14.691406 22.585938 14.734375 22.644531 C 14.777344 22.703125 14.828125 22.757812 14.886719 22.800781 C 15 22.875 15.121094 22.933594 15.25 22.976562 C 15.15625 23.03125 15.082031 23.105469 15.027344 23.203125 C 15.019531 23.21875 15.011719 23.234375 15.007812 23.25 C 15 23.269531 14.996094 23.285156 14.992188 23.300781 C 14.984375 23.332031 14.980469 23.363281 14.976562 23.394531 C 14.96875 23.457031 14.96875 23.519531 14.972656 23.582031 C 14.980469 23.710938 15.011719 23.832031 15.078125 23.945312 C 15.109375 24.003906 15.152344 24.054688 15.203125 24.101562 L 15.242188 24.132812 L 15.277344 24.160156 C 15.300781 24.175781 15.328125 24.191406 15.355469 24.207031 C 15.425781 24.253906 15.5 24.296875 15.574219 24.339844 C 15.578125 24.359375 15.578125 24.375 15.578125 24.394531 C 15.585938 24.527344 15.589844 24.660156 15.601562 24.796875 C 15.605469 24.859375 15.617188 24.929688 15.625 25 C 15.636719 25.066406 15.652344 25.136719 15.671875 25.203125 C 15.714844 25.339844 15.777344 25.464844 15.863281 25.578125 C 15.949219 25.699219 16.0625 25.785156 16.203125 25.839844 C 16.34375 25.894531 16.484375 25.902344 16.632812 25.863281 C 16.765625 25.824219 16.890625 25.761719 17.007812 25.675781 C 17.019531 25.664062 17.035156 25.65625 17.046875 25.640625 L 17.089844 25.605469 C 17.113281 25.578125 17.136719 25.550781 17.160156 25.523438 L 17.21875 25.4375 L 17.261719 25.359375 L 17.304688 25.382812 C 17.355469 25.410156 17.402344 25.441406 17.445312 25.476562 C 17.535156 25.546875 17.621094 25.636719 17.734375 25.679688 C 17.683594 25.652344 17.636719 25.613281 17.597656 25.570312 C 17.554688 25.53125 17.515625 25.488281 17.472656 25.445312 C 17.429688 25.402344 17.382812 25.367188 17.335938 25.332031 C 17.320312 25.324219 17.304688 25.3125 17.289062 25.304688 C 17.277344 25.300781 17.269531 25.292969 17.257812 25.289062 C 17.238281 25.277344 17.21875 25.265625 17.199219 25.253906 C 17.195312 25.25 17.1875 25.246094 17.183594 25.242188 C 16.988281 25.117188 16.796875 24.984375 16.613281 24.84375 C 16.519531 24.773438 16.433594 24.699219 16.332031 24.628906 C 16.234375 24.5625 16.136719 24.5 16.035156 24.4375 C 15.933594 24.375 15.832031 24.316406 15.730469 24.257812 C 15.675781 24.230469 15.621094 24.199219 15.570312 24.167969 C 15.523438 24.140625 15.476562 24.109375 15.433594 24.082031 C 15.410156 24.066406 15.386719 24.050781 15.363281 24.035156 L 15.328125 24.011719 L 15.296875 23.988281 C 15.261719 23.957031 15.226562 23.917969 15.203125 23.875 C 15.152344 23.78125 15.121094 23.679688 15.113281 23.570312 C 15.109375 23.515625 15.109375 23.460938 15.113281 23.40625 C 15.113281 23.382812 15.117188 23.355469 15.125 23.328125 C 15.125 23.316406 15.128906 23.304688 15.132812 23.292969 C 15.132812 23.28125 15.136719 23.273438 15.144531 23.261719 C 15.167969 23.214844 15.199219 23.175781 15.234375 23.140625 C 15.273438 23.101562 15.316406 23.070312 15.363281 23.042969 C 15.375 23.035156 15.382812 23.03125 15.394531 23.023438 C 15.429688 23.003906 15.46875 22.988281 15.507812 22.976562 C 15.515625 22.976562 15.523438 22.972656 15.535156 22.972656 L 15.554688 22.976562 L 15.570312 22.980469 C 15.597656 22.984375 15.621094 22.992188 15.648438 23 C 15.675781 23.007812 15.699219 23.019531 15.726562 23.027344 C 15.808594 23.058594 15.890625 23.09375 15.972656 23.125 C 16.1875 23.214844 16.402344 23.3125 16.621094 23.390625 C 16.710938 23.441406 17.207031 23.671875 17.652344 23.871094 C 17.671875 23.882812 17.691406 23.890625 17.714844 23.898438 C 17.9375 24 18.144531 24.09375 18.269531 24.144531 C 18.398438 24.1875 18.527344 24.222656 18.660156 24.257812 C 18.789062 24.292969 18.925781 24.324219 19.058594 24.347656 C 19.09375 24.351562 19.125 24.351562 19.15625 24.351562 C 19.136719 24.519531 19.136719 24.691406 19.113281 24.859375 Z M 15.734375 24.429688 C 15.808594 24.472656 15.886719 24.515625 15.964844 24.558594 C 16.066406 24.617188 16.164062 24.675781 16.257812 24.738281 C 16.308594 24.769531 16.351562 24.800781 16.398438 24.835938 C 16.449219 24.871094 16.496094 24.90625 16.542969 24.9375 C 16.738281 25.070312 16.941406 25.195312 17.148438 25.304688 C 17.152344 25.308594 17.160156 25.3125 17.167969 25.3125 C 17.113281 25.421875 17.035156 25.511719 16.941406 25.585938 C 16.835938 25.660156 16.726562 25.710938 16.601562 25.746094 C 16.480469 25.777344 16.363281 25.769531 16.246094 25.722656 C 16.132812 25.675781 16.039062 25.601562 15.96875 25.5 C 15.894531 25.394531 15.839844 25.285156 15.808594 25.160156 C 15.789062 25.101562 15.777344 25.039062 15.765625 24.976562 C 15.761719 24.914062 15.75 24.847656 15.75 24.78125 C 15.742188 24.664062 15.738281 24.546875 15.734375 24.429688 Z M 19.601562 22.695312 C 19.644531 22.738281 19.679688 22.789062 19.707031 22.847656 C 19.71875 22.875 19.726562 22.90625 19.734375 22.9375 L 19.746094 22.984375 L 19.753906 23.03125 C 19.765625 23.160156 19.757812 23.285156 19.726562 23.414062 C 19.699219 23.539062 19.660156 23.660156 19.597656 23.777344 C 19.574219 23.832031 19.539062 23.882812 19.496094 23.925781 C 19.445312 23.976562 19.402344 24.03125 19.363281 24.089844 C 19.332031 24.136719 19.289062 24.175781 19.242188 24.203125 C 19.21875 24.210938 19.199219 24.21875 19.179688 24.21875 C 19.179688 24.210938 19.179688 24.203125 19.183594 24.191406 C 19.179688 24.203125 19.179688 24.210938 19.175781 24.21875 C 19.144531 24.222656 19.113281 24.222656 19.078125 24.214844 C 18.949219 24.195312 18.820312 24.164062 18.695312 24.128906 C 18.566406 24.09375 18.4375 24.054688 18.3125 24.011719 C 18.183594 23.96875 18.058594 23.929688 17.933594 23.882812 C 17.867188 23.859375 17.800781 23.832031 17.734375 23.804688 C 17.714844 23.792969 17.695312 23.785156 17.671875 23.777344 C 17.636719 23.761719 17.601562 23.746094 17.566406 23.730469 C 17.324219 23.621094 17.078125 23.507812 16.832031 23.398438 C 16.585938 23.292969 16.335938 23.1875 16.082031 23.097656 C 16.074219 23.09375 16.066406 23.089844 16.058594 23.089844 C 16.039062 23.078125 16.023438 23.070312 16.003906 23.058594 C 15.914062 23.011719 15.824219 22.96875 15.726562 22.925781 C 15.710938 22.921875 15.699219 22.914062 15.683594 22.910156 C 15.652344 22.898438 15.625 22.886719 15.59375 22.878906 C 15.582031 22.875 15.566406 22.875 15.554688 22.871094 C 15.550781 22.871094 15.546875 22.871094 15.542969 22.867188 C 15.523438 22.867188 15.503906 22.867188 15.484375 22.871094 C 15.46875 22.875 15.449219 22.878906 15.429688 22.886719 C 15.390625 22.875 15.351562 22.863281 15.316406 22.847656 C 15.191406 22.8125 15.078125 22.757812 14.96875 22.691406 C 14.917969 22.65625 14.875 22.613281 14.839844 22.5625 C 14.800781 22.515625 14.769531 22.460938 14.742188 22.40625 C 14.6875 22.289062 14.660156 22.171875 14.660156 22.042969 C 14.660156 21.917969 14.6875 21.800781 14.75 21.6875 C 14.78125 21.636719 14.820312 21.59375 14.871094 21.558594 C 14.894531 21.539062 14.921875 21.523438 14.949219 21.507812 C 14.976562 21.492188 15.003906 21.480469 15.03125 21.46875 C 15.046875 21.464844 15.066406 21.460938 15.082031 21.457031 C 15.191406 21.433594 15.296875 21.433594 15.40625 21.453125 C 15.460938 21.464844 15.515625 21.476562 15.566406 21.492188 C 15.628906 21.507812 15.691406 21.53125 15.753906 21.554688 C 15.761719 21.554688 15.773438 21.5625 15.78125 21.566406 C 15.910156 21.613281 16.039062 21.652344 16.167969 21.691406 C 16.429688 21.761719 16.6875 21.828125 16.949219 21.894531 C 17.210938 21.960938 17.46875 22.023438 17.734375 22.082031 C 17.8125 22.101562 17.890625 22.125 17.96875 22.148438 C 17.972656 22.148438 17.976562 22.148438 17.980469 22.148438 C 18.15625 22.199219 18.335938 22.242188 18.511719 22.285156 C 18.644531 22.316406 18.777344 22.34375 18.910156 22.359375 C 19.039062 22.378906 19.164062 22.417969 19.285156 22.476562 C 19.308594 22.488281 19.332031 22.5 19.355469 22.511719 C 19.445312 22.5625 19.527344 22.621094 19.601562 22.695312 Z M 19.960938 21.144531 C 19.980469 21.273438 19.984375 21.40625 19.980469 21.539062 C 19.976562 21.671875 19.960938 21.800781 19.929688 21.929688 C 19.921875 21.957031 19.914062 21.984375 19.898438 22.011719 C 19.886719 22.042969 19.871094 22.070312 19.855469 22.097656 C 19.824219 22.148438 19.785156 22.199219 19.738281 22.242188 C 19.695312 22.285156 19.648438 22.320312 19.59375 22.347656 C 19.566406 22.359375 19.539062 22.367188 19.511719 22.375 C 19.480469 22.378906 19.453125 22.382812 19.421875 22.382812 C 19.34375 22.378906 19.265625 22.375 19.1875 22.359375 C 19.097656 22.332031 19.007812 22.3125 18.917969 22.304688 C 18.867188 22.300781 18.816406 22.292969 18.769531 22.289062 L 18.765625 22.289062 C 18.722656 22.28125 18.679688 22.269531 18.636719 22.261719 C 18.417969 22.21875 18.199219 22.175781 17.984375 22.132812 C 17.980469 22.128906 17.976562 22.128906 17.972656 22.128906 C 17.855469 22.101562 17.738281 22.078125 17.621094 22.046875 C 17.300781 21.957031 16.976562 21.863281 16.65625 21.765625 C 16.539062 21.722656 16.417969 21.679688 16.292969 21.644531 C 16.234375 21.625 16.167969 21.609375 16.109375 21.59375 C 16.007812 21.558594 15.910156 21.527344 15.816406 21.488281 C 15.796875 21.476562 15.773438 21.46875 15.753906 21.460938 C 15.695312 21.4375 15.632812 21.414062 15.570312 21.398438 C 15.523438 21.382812 15.472656 21.371094 15.421875 21.363281 C 15.335938 21.34375 15.25 21.339844 15.160156 21.34375 C 15.152344 21.339844 15.144531 21.335938 15.132812 21.328125 C 15.105469 21.316406 15.078125 21.300781 15.054688 21.285156 C 15.03125 21.269531 15.007812 21.25 14.988281 21.226562 C 14.945312 21.183594 14.910156 21.136719 14.886719 21.078125 C 14.84375 20.960938 14.820312 20.835938 14.828125 20.710938 C 14.828125 20.644531 14.832031 20.578125 14.839844 20.511719 C 14.847656 20.453125 14.863281 20.390625 14.886719 20.332031 C 14.910156 20.277344 14.941406 20.226562 14.984375 20.179688 C 14.984375 20.175781 14.988281 20.171875 14.992188 20.171875 C 15.019531 20.140625 15.050781 20.117188 15.085938 20.09375 C 15.097656 20.082031 15.113281 20.074219 15.128906 20.066406 C 15.183594 20.035156 15.242188 20.011719 15.304688 19.996094 C 15.367188 19.976562 15.429688 19.96875 15.496094 19.964844 C 15.539062 19.960938 15.585938 19.960938 15.632812 19.960938 C 15.699219 19.960938 15.761719 19.964844 15.828125 19.972656 L 15.890625 19.976562 C 16.023438 19.988281 16.15625 20.007812 16.289062 20.03125 C 16.351562 20.09375 16.425781 20.140625 16.507812 20.175781 C 16.625 20.222656 16.746094 20.257812 16.871094 20.28125 C 16.988281 20.308594 17.109375 20.332031 17.230469 20.351562 C 17.472656 20.390625 17.710938 20.421875 17.953125 20.449219 C 18.074219 20.460938 18.195312 20.472656 18.316406 20.484375 C 18.433594 20.492188 18.550781 20.511719 18.664062 20.539062 C 18.898438 20.585938 19.132812 20.652344 19.375 20.699219 C 19.453125 20.714844 19.535156 20.726562 19.617188 20.734375 C 19.640625 20.738281 19.664062 20.742188 19.6875 20.742188 C 19.6875 20.742188 19.691406 20.742188 19.691406 20.742188 C 19.722656 20.765625 19.757812 20.792969 19.789062 20.824219 C 19.824219 20.855469 19.859375 20.894531 19.890625 20.933594 C 19.898438 20.945312 19.90625 20.957031 19.910156 20.964844 C 19.933594 21.007812 19.949219 21.050781 19.953125 21.097656 C 19.957031 21.113281 19.960938 21.128906 19.960938 21.144531 Z M 25.261719 23.320312 C 25.324219 23.382812 25.386719 23.449219 25.445312 23.515625 L 25.625 23.71875 C 25.746094 23.847656 25.855469 23.988281 25.949219 24.136719 C 25.992188 24.210938 26.03125 24.285156 26.0625 24.363281 C 26.089844 24.445312 26.113281 24.527344 26.125 24.609375 C 26.152344 24.78125 26.148438 24.949219 26.117188 25.117188 C 26.097656 25.195312 26.070312 25.273438 26.03125 25.34375 C 25.988281 25.414062 25.9375 25.472656 25.878906 25.523438 C 25.8125 25.578125 25.742188 25.621094 25.667969 25.65625 C 25.628906 25.675781 25.589844 25.691406 25.546875 25.707031 L 25.484375 25.734375 C 25.476562 25.738281 25.472656 25.738281 25.464844 25.738281 C 25.433594 25.734375 25.410156 25.722656 25.386719 25.707031 C 25.355469 25.683594 25.324219 25.660156 25.292969 25.628906 C 25.234375 25.570312 25.171875 25.503906 25.113281 25.4375 C 25.050781 25.371094 24.988281 25.300781 24.921875 25.234375 C 24.886719 25.199219 24.851562 25.167969 24.8125 25.136719 C 24.773438 25.109375 24.734375 25.082031 24.695312 25.054688 C 24.390625 24.84375 24.078125 24.660156 23.773438 24.464844 C 23.621094 24.367188 23.472656 24.269531 23.332031 24.160156 C 23.191406 24.046875 23.054688 23.929688 22.917969 23.808594 L 22.507812 23.449219 C 22.441406 23.390625 22.371094 23.332031 22.296875 23.273438 C 22.261719 23.242188 22.222656 23.214844 22.183594 23.1875 C 22.148438 23.164062 22.117188 23.136719 22.082031 23.109375 C 21.945312 22.992188 21.816406 22.867188 21.695312 22.738281 C 21.570312 22.605469 21.445312 22.472656 21.320312 22.339844 C 21.195312 22.210938 21.066406 22.078125 20.9375 21.949219 C 20.804688 21.824219 20.671875 21.699219 20.535156 21.578125 C 20.402344 21.453125 20.269531 21.332031 20.144531 21.199219 C 20.113281 21.167969 20.082031 21.136719 20.050781 21.101562 C 20.046875 21.074219 20.039062 21.050781 20.03125 21.023438 C 20.027344 21.007812 20.019531 20.988281 20.011719 20.972656 C 20.007812 20.953125 19.996094 20.9375 19.988281 20.921875 C 19.945312 20.859375 19.898438 20.808594 19.84375 20.761719 L 19.824219 20.742188 C 19.867188 20.742188 19.90625 20.734375 19.945312 20.722656 C 20.011719 20.703125 20.070312 20.671875 20.125 20.628906 C 20.230469 20.546875 20.3125 20.453125 20.382812 20.339844 C 20.449219 20.230469 20.496094 20.113281 20.523438 19.984375 C 20.53125 19.953125 20.535156 19.921875 20.539062 19.886719 C 20.542969 19.855469 20.539062 19.820312 20.535156 19.785156 C 20.535156 19.753906 20.527344 19.722656 20.519531 19.691406 C 20.515625 19.664062 20.507812 19.632812 20.5 19.601562 C 20.46875 19.484375 20.429688 19.367188 20.386719 19.25 C 20.339844 19.136719 20.285156 19.023438 20.21875 18.917969 C 20.152344 18.8125 20.074219 18.71875 19.980469 18.632812 C 19.917969 18.574219 19.851562 18.519531 19.777344 18.476562 C 19.832031 18.460938 19.890625 18.445312 19.945312 18.425781 L 20.472656 18.257812 C 20.644531 18.203125 20.820312 18.148438 20.996094 18.109375 C 21.171875 18.066406 21.347656 18.042969 21.527344 18.039062 C 21.617188 18.042969 21.707031 18.054688 21.800781 18.0625 C 21.804688 18.0625 21.808594 18.0625 21.8125 18.0625 C 21.871094 18.3125 21.933594 18.5625 22 18.808594 C 22.035156 18.925781 22.066406 19.042969 22.105469 19.160156 C 22.140625 19.277344 22.179688 19.390625 22.226562 19.511719 C 22.277344 19.632812 22.347656 19.742188 22.4375 19.839844 C 22.488281 19.898438 22.542969 19.953125 22.605469 20 C 22.601562 20.082031 22.601562 20.167969 22.605469 20.253906 C 22.605469 20.347656 22.621094 20.441406 22.648438 20.53125 C 22.691406 20.621094 22.746094 20.699219 22.820312 20.765625 C 22.886719 20.832031 22.953125 20.890625 23.023438 20.953125 C 23.304688 21.1875 23.589844 21.410156 23.828125 21.675781 L 23.871094 21.722656 L 23.914062 21.777344 C 23.925781 21.792969 23.941406 21.808594 23.953125 21.828125 L 24.070312 21.992188 C 24.09375 22.03125 24.125 22.070312 24.148438 22.105469 C 24.261719 22.253906 24.382812 22.394531 24.503906 22.53125 C 24.578125 22.613281 24.65625 22.695312 24.730469 22.777344 C 24.800781 22.847656 24.871094 22.921875 24.941406 22.992188 C 25.046875 23.101562 25.15625 23.210938 25.261719 23.320312 Z M 27.269531 22.195312 C 27.359375 22.277344 27.441406 22.363281 27.515625 22.453125 C 27.589844 22.546875 27.660156 22.644531 27.722656 22.746094 C 27.785156 22.84375 27.832031 22.949219 27.867188 23.058594 C 27.875 23.085938 27.878906 23.113281 27.886719 23.136719 C 27.890625 23.164062 27.894531 23.191406 27.898438 23.21875 C 27.894531 23.242188 27.898438 23.269531 27.894531 23.296875 C 27.894531 23.320312 27.886719 23.347656 27.882812 23.371094 C 27.851562 23.476562 27.800781 23.566406 27.71875 23.640625 C 27.644531 23.71875 27.554688 23.765625 27.449219 23.78125 C 27.339844 23.796875 27.230469 23.789062 27.125 23.757812 C 27.007812 23.722656 26.898438 23.683594 26.789062 23.632812 C 26.570312 23.535156 26.359375 23.410156 26.128906 23.300781 C 26.015625 23.246094 25.902344 23.191406 25.785156 23.144531 C 25.671875 23.097656 25.554688 23.054688 25.4375 23.011719 C 25.316406 22.96875 25.195312 22.929688 25.074219 22.890625 C 24.917969 22.734375 24.765625 22.582031 24.617188 22.425781 C 24.492188 22.292969 24.375 22.160156 24.261719 22.019531 C 24.238281 21.984375 24.207031 21.949219 24.183594 21.914062 L 24.101562 21.800781 L 24.0625 21.746094 C 24.046875 21.726562 24.03125 21.707031 24.015625 21.691406 L 23.972656 21.636719 L 23.921875 21.585938 C 23.667969 21.316406 23.367188 21.101562 23.085938 20.875 C 23.015625 20.820312 22.945312 20.761719 22.878906 20.703125 C 22.8125 20.648438 22.757812 20.582031 22.71875 20.503906 C 22.6875 20.421875 22.671875 20.335938 22.667969 20.25 C 22.660156 20.179688 22.660156 20.109375 22.660156 20.039062 C 22.683594 20.054688 22.710938 20.074219 22.738281 20.089844 C 22.964844 20.230469 23.210938 20.296875 23.476562 20.296875 C 23.75 20.296875 23.996094 20.214844 24.210938 20.042969 C 24.316406 19.960938 24.402344 19.859375 24.472656 19.746094 C 24.472656 19.742188 24.476562 19.734375 24.480469 19.730469 C 24.484375 19.746094 24.492188 19.761719 24.496094 19.773438 C 24.546875 19.890625 24.601562 20.003906 24.671875 20.109375 C 24.742188 20.21875 24.828125 20.316406 24.933594 20.394531 C 24.957031 20.414062 24.984375 20.429688 25.015625 20.445312 C 25.046875 20.464844 25.070312 20.476562 25.097656 20.492188 C 25.148438 20.519531 25.199219 20.550781 25.25 20.585938 C 25.351562 20.652344 25.445312 20.730469 25.535156 20.808594 C 25.71875 20.96875 25.894531 21.144531 26.085938 21.308594 C 26.28125 21.464844 26.484375 21.613281 26.695312 21.746094 C 26.828125 21.839844 26.960938 21.933594 27.085938 22.03125 C 27.113281 22.054688 27.140625 22.078125 27.164062 22.101562 C 27.203125 22.132812 27.234375 22.164062 27.269531 22.195312 Z M 27.269531 22.195312 "/></g><path style=" stroke:none;fill-rule:nonzero;fill:#939c8f;fill-opacity:1;" d="M 15.164062 18.636719 C 15.175781 18.644531 15.191406 18.648438 15.207031 18.652344 C 15.21875 18.652344 15.234375 18.652344 15.246094 18.648438 C 15.289062 18.628906 15.320312 18.601562 15.34375 18.558594 C 15.351562 18.542969 15.363281 18.527344 15.371094 18.515625 C 15.378906 18.5 15.390625 18.488281 15.402344 18.476562 C 15.496094 18.371094 15.601562 18.28125 15.71875 18.199219 C 15.777344 18.160156 15.835938 18.117188 15.894531 18.082031 C 15.953125 18.042969 16.019531 18.011719 16.085938 17.988281 C 16.011719 17.996094 15.945312 18.015625 15.878906 18.050781 C 15.8125 18.078125 15.746094 18.113281 15.683594 18.152344 C 15.558594 18.226562 15.445312 18.320312 15.34375 18.425781 C 15.332031 18.441406 15.320312 18.457031 15.308594 18.472656 L 15.28125 18.519531 C 15.269531 18.546875 15.25 18.566406 15.222656 18.582031 C 15.21875 18.585938 15.210938 18.585938 15.203125 18.578125 C 15.195312 18.574219 15.191406 18.5625 15.1875 18.550781 C 15.175781 18.523438 15.175781 18.492188 15.179688 18.464844 C 15.1875 18.429688 15.195312 18.398438 15.210938 18.367188 C 15.226562 18.335938 15.242188 18.304688 15.261719 18.277344 C 15.296875 18.214844 15.339844 18.160156 15.390625 18.105469 C 15.332031 18.148438 15.277344 18.199219 15.230469 18.253906 C 15.179688 18.3125 15.144531 18.378906 15.125 18.453125 C 15.113281 18.492188 15.113281 18.535156 15.125 18.574219 C 15.132812 18.597656 15.144531 18.621094 15.164062 18.636719 Z M 15.164062 18.636719 "/><path style=" stroke:none;fill-rule:nonzero;fill:#939c8f;fill-opacity:1;" d="M 16.535156 19.144531 C 16.464844 19.257812 16.425781 19.382812 16.421875 19.519531 C 16.417969 19.585938 16.421875 19.648438 16.4375 19.714844 C 16.449219 19.78125 16.476562 19.84375 16.519531 19.898438 C 16.566406 19.953125 16.621094 19.992188 16.691406 20.011719 C 16.753906 20.03125 16.816406 20.042969 16.882812 20.042969 C 16.949219 20.042969 17.011719 20.039062 17.078125 20.027344 C 17.140625 20.015625 17.203125 19.996094 17.261719 19.96875 C 17.320312 19.941406 17.371094 19.902344 17.410156 19.851562 C 17.449219 19.796875 17.472656 19.738281 17.480469 19.675781 C 17.464844 19.734375 17.4375 19.789062 17.394531 19.835938 C 17.355469 19.882812 17.304688 19.914062 17.246094 19.9375 C 17.1875 19.960938 17.128906 19.972656 17.070312 19.980469 C 17.007812 19.988281 16.949219 19.988281 16.886719 19.984375 C 16.765625 19.976562 16.640625 19.941406 16.574219 19.855469 C 16.539062 19.808594 16.519531 19.757812 16.507812 19.699219 C 16.496094 19.640625 16.492188 19.582031 16.496094 19.523438 C 16.5 19.402344 16.53125 19.289062 16.597656 19.183594 C 16.652344 19.085938 16.773438 19.042969 16.890625 19.035156 C 16.953125 19.03125 17.011719 19.03125 17.074219 19.039062 C 17.132812 19.046875 17.191406 19.058594 17.25 19.082031 C 17.359375 19.148438 17.4375 19.238281 17.480469 19.359375 C 17.464844 19.296875 17.4375 19.242188 17.402344 19.1875 C 17.367188 19.132812 17.324219 19.085938 17.265625 19.050781 C 17.207031 19.019531 17.148438 19 17.082031 18.992188 C 17.019531 18.980469 16.953125 18.972656 16.890625 18.976562 C 16.820312 18.976562 16.757812 18.992188 16.695312 19.015625 C 16.628906 19.042969 16.578125 19.085938 16.535156 19.144531 Z M 16.535156 19.144531 "/><path style=" stroke:none;fill-rule:nonzero;fill:#939c8f;fill-opacity:1;" d="M 14.96875 20.667969 C 14.988281 20.5625 15.03125 20.464844 15.089844 20.375 C 15.144531 20.289062 15.230469 20.210938 15.324219 20.210938 C 15.347656 20.214844 15.375 20.21875 15.398438 20.226562 C 15.421875 20.234375 15.445312 20.246094 15.472656 20.257812 C 15.519531 20.277344 15.5625 20.308594 15.601562 20.347656 C 15.675781 20.429688 15.722656 20.527344 15.746094 20.636719 C 15.734375 20.523438 15.695312 20.417969 15.628906 20.324219 C 15.621094 20.3125 15.613281 20.304688 15.601562 20.296875 C 15.570312 20.261719 15.535156 20.234375 15.492188 20.214844 C 15.46875 20.199219 15.441406 20.1875 15.414062 20.175781 C 15.402344 20.171875 15.390625 20.167969 15.375 20.160156 C 15.359375 20.15625 15.34375 20.15625 15.328125 20.152344 C 15.261719 20.148438 15.203125 20.167969 15.152344 20.207031 C 15.105469 20.242188 15.0625 20.285156 15.03125 20.335938 C 14.996094 20.382812 14.96875 20.433594 14.949219 20.488281 C 14.925781 20.542969 14.90625 20.597656 14.894531 20.652344 C 14.882812 20.710938 14.875 20.765625 14.871094 20.824219 C 14.867188 20.882812 14.871094 20.941406 14.886719 21 C 14.902344 21.0625 14.929688 21.113281 14.976562 21.160156 C 15.019531 21.199219 15.066406 21.230469 15.121094 21.253906 C 15.230469 21.304688 15.347656 21.316406 15.464844 21.289062 C 15.5 21.28125 15.535156 21.269531 15.574219 21.257812 C 15.589844 21.25 15.605469 21.242188 15.625 21.234375 C 15.675781 21.207031 15.71875 21.171875 15.746094 21.117188 C 15.710938 21.164062 15.667969 21.195312 15.617188 21.214844 C 15.601562 21.21875 15.585938 21.226562 15.574219 21.230469 C 15.535156 21.242188 15.496094 21.25 15.457031 21.253906 C 15.347656 21.269531 15.246094 21.25 15.148438 21.203125 C 15.101562 21.179688 15.058594 21.148438 15.023438 21.113281 C 14.988281 21.078125 14.964844 21.03125 14.953125 20.984375 C 14.945312 20.933594 14.941406 20.878906 14.945312 20.828125 C 14.949219 20.773438 14.957031 20.722656 14.96875 20.667969 Z M 14.96875 20.667969 "/><path style=" stroke:none;fill-rule:nonzero;fill:#939c8f;fill-opacity:1;" d="M 15.742188 22.011719 C 15.726562 21.929688 15.691406 21.863281 15.640625 21.800781 C 15.617188 21.777344 15.589844 21.757812 15.5625 21.738281 C 15.542969 21.722656 15.515625 21.707031 15.492188 21.695312 C 15.4375 21.667969 15.378906 21.648438 15.320312 21.640625 C 15.253906 21.632812 15.191406 21.640625 15.132812 21.667969 C 15.074219 21.699219 15.027344 21.742188 14.992188 21.796875 C 14.960938 21.851562 14.9375 21.90625 14.917969 21.964844 C 14.898438 22.023438 14.882812 22.078125 14.871094 22.140625 C 14.847656 22.261719 14.851562 22.382812 14.890625 22.503906 C 14.910156 22.566406 14.953125 22.617188 15.011719 22.652344 C 15.070312 22.679688 15.125 22.699219 15.1875 22.707031 C 15.3125 22.730469 15.429688 22.714844 15.542969 22.65625 C 15.546875 22.652344 15.550781 22.648438 15.554688 22.644531 C 15.597656 22.609375 15.632812 22.566406 15.660156 22.519531 C 15.6875 22.476562 15.714844 22.433594 15.734375 22.390625 C 15.738281 22.382812 15.742188 22.375 15.746094 22.367188 C 15.742188 22.371094 15.738281 22.378906 15.734375 22.382812 C 15.707031 22.425781 15.675781 22.46875 15.644531 22.507812 C 15.621094 22.542969 15.589844 22.574219 15.554688 22.601562 C 15.546875 22.609375 15.535156 22.617188 15.523438 22.621094 C 15.417969 22.667969 15.308594 22.675781 15.199219 22.648438 C 15.144531 22.636719 15.09375 22.617188 15.042969 22.59375 C 15 22.566406 14.96875 22.527344 14.957031 22.476562 C 14.925781 22.371094 14.921875 22.261719 14.945312 22.152344 C 14.957031 22.097656 14.96875 22.042969 14.988281 21.988281 C 15.003906 21.933594 15.023438 21.882812 15.050781 21.835938 C 15.078125 21.789062 15.113281 21.753906 15.160156 21.726562 C 15.207031 21.703125 15.257812 21.695312 15.3125 21.699219 C 15.367188 21.703125 15.421875 21.71875 15.472656 21.738281 C 15.503906 21.753906 15.535156 21.769531 15.5625 21.789062 C 15.582031 21.800781 15.597656 21.8125 15.613281 21.828125 C 15.65625 21.867188 15.6875 21.910156 15.710938 21.964844 C 15.726562 22 15.734375 22.035156 15.742188 22.074219 C 15.742188 22.09375 15.746094 22.113281 15.746094 22.132812 C 15.75 22.089844 15.75 22.050781 15.742188 22.011719 Z M 15.742188 22.011719 "/><path style=" stroke:none;fill-rule:nonzero;fill:#939c8f;fill-opacity:1;" d="M 15.832031 23.179688 C 15.8125 23.167969 15.796875 23.15625 15.777344 23.148438 C 15.761719 23.136719 15.742188 23.128906 15.726562 23.121094 C 15.71875 23.121094 15.710938 23.117188 15.707031 23.113281 C 15.679688 23.105469 15.65625 23.101562 15.628906 23.101562 C 15.628906 23.097656 15.628906 23.097656 15.628906 23.101562 C 15.625 23.097656 15.625 23.097656 15.625 23.097656 C 15.601562 23.097656 15.578125 23.101562 15.554688 23.109375 C 15.503906 23.125 15.464844 23.15625 15.429688 23.195312 C 15.375 23.273438 15.335938 23.359375 15.3125 23.453125 C 15.289062 23.542969 15.28125 23.636719 15.292969 23.734375 C 15.304688 23.839844 15.355469 23.917969 15.445312 23.976562 C 15.484375 23.996094 15.523438 24.015625 15.566406 24.023438 C 15.613281 24.039062 15.664062 24.046875 15.714844 24.042969 C 15.71875 24.042969 15.722656 24.042969 15.726562 24.042969 C 15.816406 24.042969 15.898438 24.011719 15.972656 23.957031 C 15.894531 24 15.8125 24.015625 15.726562 24.007812 C 15.722656 24.007812 15.71875 24.007812 15.714844 24.007812 C 15.664062 24.003906 15.613281 23.992188 15.566406 23.972656 C 15.535156 23.960938 15.503906 23.945312 15.476562 23.925781 C 15.40625 23.875 15.371094 23.808594 15.363281 23.722656 C 15.355469 23.636719 15.363281 23.554688 15.386719 23.472656 C 15.40625 23.386719 15.4375 23.3125 15.488281 23.242188 C 15.503906 23.214844 15.527344 23.195312 15.554688 23.179688 C 15.597656 23.160156 15.640625 23.15625 15.6875 23.171875 C 15.703125 23.171875 15.714844 23.179688 15.726562 23.183594 C 15.753906 23.195312 15.777344 23.207031 15.804688 23.222656 C 15.84375 23.242188 15.878906 23.265625 15.914062 23.292969 C 15.984375 23.351562 16.039062 23.417969 16.085938 23.492188 C 16.035156 23.359375 15.949219 23.257812 15.832031 23.179688 Z M 15.832031 23.179688 "/></g></svg>