<svg xmlns="http://www.w3.org/2000/svg" xmlns:xlink="http://www.w3.org/1999/xlink" width="40" zoomAndPan="magnify" viewBox="0 0 30 37.5" height="50" preserveAspectRatio="xMidYMid meet" version="1.2"><defs><clipPath id="3070dfad86"><path d="M 5 1.160156 L 11 1.160156 L 11 8 L 5 8 Z M 5 1.160156 "/></clipPath><clipPath id="752092b9e8"><path d="M 3 20 L 28 20 L 28 35.949219 L 3 35.949219 Z M 3 20 "/></clipPath><clipPath id="92ae380bfc"><path d="M 24 10 L 29.558594 10 L 29.558594 15 L 24 15 Z M 24 10 "/></clipPath><clipPath id="dae967ad8b"><path d="M 0.691406 12 L 5 12 L 5 17 L 0.691406 17 Z M 0.691406 12 "/></clipPath><clipPath id="c19e9f8586"><path d="M 15.484375 13.007812 L 15.835938 13.007812 L 15.835938 13.261719 L 15.484375 13.261719 Z M 15.484375 13.007812 "/></clipPath><clipPath id="59414a8255"><path d="M 15.8125 13.175781 C 15.148438 13.394531 15.738281 13.027344 15.738281 13.027344 "/></clipPath><clipPath id="835270c445"><path d="M 17.035156 8.566406 L 17.390625 8.566406 L 17.390625 8.894531 L 17.035156 8.894531 Z M 17.035156 8.566406 "/></clipPath><clipPath id="2197719caa"><path d="M 17.367188 8.808594 C 16.703125 9.03125 17.292969 8.585938 17.292969 8.585938 "/></clipPath></defs><g id="1fde2ff78d"><path style=" stroke:none;fill-rule:nonzero;fill:#939c8f;fill-opacity:1;" d="M 15.523438 7.613281 C 15.160156 7.621094 14.8125 7.695312 14.480469 7.835938 C 14.148438 7.976562 13.851562 8.171875 13.597656 8.425781 C 13.339844 8.683594 13.140625 8.976562 12.996094 9.308594 C 12.855469 9.640625 12.777344 9.984375 12.769531 10.347656 L 13.871094 10.394531 C 13.867188 10.171875 13.90625 9.953125 13.992188 9.746094 C 14.078125 9.535156 14.203125 9.351562 14.363281 9.195312 C 14.523438 9.035156 14.707031 8.917969 14.914062 8.832031 C 15.125 8.75 15.34375 8.710938 15.566406 8.71875 C 15.792969 8.722656 16.007812 8.773438 16.210938 8.867188 C 16.417969 8.960938 16.59375 9.089844 16.746094 9.257812 C 16.898438 9.421875 17.011719 9.613281 17.085938 9.824219 C 17.160156 10.039062 17.191406 10.257812 17.175781 10.480469 C 17.183594 10.707031 17.144531 10.925781 17.066406 11.140625 C 16.984375 11.351562 16.867188 11.539062 16.714844 11.703125 C 16.558594 11.871094 16.378906 12 16.171875 12.09375 C 15.964844 12.1875 15.75 12.238281 15.523438 12.246094 C 15.371094 12.246094 15.238281 12.300781 15.132812 12.40625 C 15.023438 12.515625 14.96875 12.644531 14.96875 12.796875 L 14.96875 15.882812 L 16.074219 15.882812 L 16.074219 13.289062 C 16.390625 13.21875 16.683594 13.09375 16.960938 12.917969 C 17.234375 12.746094 17.46875 12.53125 17.671875 12.273438 C 17.871094 12.019531 18.023438 11.738281 18.128906 11.429688 C 18.230469 11.121094 18.28125 10.804688 18.277344 10.480469 C 18.285156 10.109375 18.21875 9.75 18.085938 9.402344 C 17.949219 9.054688 17.75 8.746094 17.492188 8.480469 C 17.234375 8.210938 16.933594 8 16.59375 7.851562 C 16.25 7.703125 15.894531 7.621094 15.523438 7.613281 Z M 15.523438 7.613281 "/><path style=" stroke:none;fill-rule:nonzero;fill:#939c8f;fill-opacity:1;" d="M 15.523438 16.433594 C 15.675781 16.433594 15.804688 16.488281 15.910156 16.597656 C 16.019531 16.703125 16.074219 16.835938 16.074219 16.988281 C 16.074219 17.136719 16.019531 17.269531 15.910156 17.375 C 15.804688 17.484375 15.675781 17.539062 15.523438 17.539062 C 15.371094 17.539062 15.238281 17.484375 15.132812 17.375 C 15.023438 17.269531 14.96875 17.136719 14.96875 16.988281 C 14.96875 16.835938 15.023438 16.703125 15.132812 16.597656 C 15.238281 16.488281 15.371094 16.433594 15.523438 16.433594 Z M 15.523438 16.433594 "/><path style=" stroke:none;fill-rule:nonzero;fill:#939c8f;fill-opacity:1;" d="M 21.058594 4.980469 L 22.113281 5.304688 C 22.15625 5.164062 22.222656 5.039062 22.316406 4.925781 C 22.410156 4.816406 22.523438 4.726562 22.652344 4.65625 C 22.78125 4.589844 22.917969 4.546875 23.0625 4.535156 C 23.210938 4.519531 23.351562 4.535156 23.492188 4.578125 C 23.632812 4.621094 23.757812 4.691406 23.871094 4.785156 C 23.984375 4.878906 24.074219 4.988281 24.140625 5.117188 C 24.210938 5.246094 24.25 5.386719 24.261719 5.53125 C 24.277344 5.675781 24.261719 5.820312 24.21875 5.957031 C 24.175781 6.097656 24.105469 6.222656 24.015625 6.335938 C 23.921875 6.449219 23.808594 6.539062 23.679688 6.609375 C 23.550781 6.675781 23.414062 6.714844 23.265625 6.730469 C 23.121094 6.742188 22.980469 6.730469 22.839844 6.683594 C 22.695312 6.640625 22.554688 6.652344 22.417969 6.722656 C 22.285156 6.792969 22.195312 6.902344 22.148438 7.046875 L 21.660156 8.628906 L 22.714844 8.953125 L 23.058594 7.835938 C 23.335938 7.847656 23.605469 7.8125 23.867188 7.722656 C 24.128906 7.636719 24.367188 7.503906 24.578125 7.324219 C 24.789062 7.148438 24.964844 6.9375 25.097656 6.695312 C 25.230469 6.453125 25.316406 6.195312 25.351562 5.921875 C 25.386719 5.648438 25.375 5.378906 25.308594 5.109375 C 25.242188 4.839844 25.128906 4.59375 24.972656 4.367188 C 24.8125 4.140625 24.617188 3.949219 24.390625 3.796875 C 24.160156 3.644531 23.910156 3.539062 23.640625 3.476562 C 23.371094 3.417969 23.097656 3.410156 22.824219 3.453125 C 22.550781 3.496094 22.296875 3.585938 22.058594 3.726562 C 21.816406 3.863281 21.613281 4.042969 21.441406 4.257812 C 21.269531 4.476562 21.140625 4.714844 21.058594 4.980469 Z M 21.058594 4.980469 "/><path style=" stroke:none;fill-rule:nonzero;fill:#939c8f;fill-opacity:1;" d="M 21.699219 10.371094 C 21.84375 10.417969 21.984375 10.402344 22.117188 10.332031 C 22.253906 10.261719 22.34375 10.152344 22.386719 10.007812 C 22.433594 9.863281 22.417969 9.722656 22.347656 9.585938 C 22.277344 9.453125 22.167969 9.363281 22.023438 9.316406 C 21.878906 9.273438 21.738281 9.285156 21.601562 9.355469 C 21.46875 9.429688 21.378906 9.535156 21.332031 9.679688 C 21.289062 9.828125 21.300781 9.96875 21.371094 10.101562 C 21.445312 10.234375 21.550781 10.324219 21.695312 10.371094 Z M 21.699219 10.371094 "/><g clip-rule="nonzero" clip-path="url(#3070dfad86)"><path style=" stroke:none;fill-rule:nonzero;fill:#939c8f;fill-opacity:1;" d="M 9.871094 2.984375 C 9.769531 2.710938 9.617188 2.46875 9.417969 2.257812 C 9.21875 2.042969 8.984375 1.875 8.71875 1.753906 C 8.453125 1.632812 8.175781 1.566406 7.882812 1.558594 C 7.59375 1.546875 7.308594 1.59375 7.035156 1.695312 C 6.761719 1.796875 6.519531 1.949219 6.304688 2.144531 C 6.089844 2.34375 5.921875 2.578125 5.800781 2.84375 C 5.679688 3.109375 5.613281 3.386719 5.601562 3.679688 C 5.589844 3.96875 5.636719 4.253906 5.738281 4.527344 L 6.773438 4.140625 C 6.71875 4.003906 6.699219 3.863281 6.703125 3.71875 C 6.707031 3.570312 6.742188 3.429688 6.800781 3.296875 C 6.863281 3.164062 6.945312 3.046875 7.054688 2.949219 C 7.160156 2.847656 7.28125 2.773438 7.417969 2.722656 C 7.554688 2.671875 7.699219 2.648438 7.84375 2.652344 C 7.988281 2.660156 8.128906 2.691406 8.261719 2.753906 C 8.394531 2.8125 8.511719 2.898438 8.613281 3.003906 C 8.710938 3.113281 8.785156 3.234375 8.839844 3.371094 C 8.890625 3.507812 8.910156 3.648438 8.90625 3.796875 C 8.902344 3.941406 8.867188 4.082031 8.808594 4.214844 C 8.746094 4.347656 8.664062 4.464844 8.554688 4.5625 C 8.449219 4.664062 8.328125 4.738281 8.191406 4.789062 C 8.046875 4.84375 7.945312 4.9375 7.882812 5.078125 C 7.816406 5.214844 7.8125 5.355469 7.867188 5.5 L 8.441406 7.046875 L 9.476562 6.664062 L 9.066406 5.566406 C 9.265625 5.425781 9.441406 5.257812 9.585938 5.058594 C 9.730469 4.863281 9.835938 4.644531 9.910156 4.414062 C 9.984375 4.179688 10.015625 3.941406 10.007812 3.695312 C 10 3.453125 9.957031 3.214844 9.871094 2.984375 Z M 9.871094 2.984375 "/></g><path style=" stroke:none;fill-rule:nonzero;fill:#939c8f;fill-opacity:1;" d="M 9.152344 7.371094 C 9.011719 7.425781 8.90625 7.519531 8.84375 7.660156 C 8.78125 7.796875 8.777344 7.9375 8.828125 8.082031 C 8.882812 8.222656 8.976562 8.328125 9.117188 8.390625 C 9.253906 8.453125 9.394531 8.460938 9.539062 8.40625 C 9.679688 8.351562 9.785156 8.257812 9.847656 8.117188 C 9.910156 7.980469 9.914062 7.839844 9.863281 7.695312 C 9.808594 7.554688 9.710938 7.449219 9.574219 7.386719 C 9.4375 7.324219 9.296875 7.320312 9.152344 7.371094 Z M 9.152344 7.371094 "/><g clip-rule="nonzero" clip-path="url(#752092b9e8)"><path style=" stroke:none;fill-rule:nonzero;fill:#939c8f;fill-opacity:1;" d="M 25.335938 32.449219 L 25.335938 25.722656 L 27.230469 25.257812 C 27.441406 25.207031 27.574219 25.074219 27.628906 24.867188 C 27.6875 24.660156 27.640625 24.480469 27.484375 24.328125 L 24.707031 21.601562 C 24.628906 21.527344 24.535156 21.476562 24.429688 21.457031 L 24.429688 21.453125 L 18.875 20.304688 L 18.652344 21.386719 L 21.597656 21.992188 L 15.523438 23.25 L 9.449219 21.992188 L 12.390625 21.386719 L 12.167969 20.304688 L 6.613281 21.453125 L 6.613281 21.457031 C 6.507812 21.476562 6.414062 21.527344 6.335938 21.601562 L 3.558594 24.328125 C 3.40625 24.480469 3.355469 24.660156 3.414062 24.867188 C 3.46875 25.074219 3.605469 25.207031 3.8125 25.257812 L 5.710938 25.722656 L 5.710938 32.449219 C 5.710938 32.726562 5.839844 32.902344 6.105469 32.980469 L 15.367188 35.707031 C 15.46875 35.738281 15.574219 35.738281 15.675781 35.703125 L 15.675781 35.707031 L 24.9375 32.980469 C 25.203125 32.902344 25.335938 32.726562 25.335938 32.449219 Z M 5.035156 24.421875 L 6.898438 22.59375 L 14.574219 24.179688 L 12.976562 26.371094 Z M 14.96875 34.441406 L 6.8125 32.039062 L 6.8125 25.992188 L 13.074219 27.53125 C 13.316406 27.589844 13.507812 27.519531 13.652344 27.320312 L 14.96875 25.507812 Z M 24.144531 22.59375 L 26.007812 24.421875 L 18.066406 26.371094 L 16.46875 24.179688 Z M 24.230469 32.039062 L 16.074219 34.441406 L 16.074219 25.507812 L 17.390625 27.320312 C 17.535156 27.519531 17.730469 27.589844 17.96875 27.53125 L 24.230469 25.992188 Z M 24.230469 32.039062 "/></g><g clip-rule="nonzero" clip-path="url(#92ae380bfc)"><path style=" stroke:none;fill-rule:nonzero;fill:#939c8f;fill-opacity:1;" d="M 29.269531 12.867188 C 29.308594 12.652344 29.242188 12.476562 29.066406 12.339844 C 28.472656 11.933594 28.085938 11.382812 27.90625 10.6875 C 27.835938 10.476562 27.695312 10.355469 27.476562 10.316406 C 27.261719 10.277344 27.082031 10.347656 26.949219 10.519531 C 26.542969 11.113281 25.992188 11.503906 25.296875 11.683594 C 25.085938 11.75 24.964844 11.894531 24.925781 12.109375 C 24.886719 12.328125 24.957031 12.503906 25.128906 12.640625 C 25.722656 13.042969 26.113281 13.59375 26.292969 14.292969 C 26.359375 14.5 26.503906 14.625 26.71875 14.660156 C 26.75 14.667969 26.78125 14.667969 26.816406 14.667969 C 26.992188 14.667969 27.136719 14.597656 27.25 14.457031 C 27.652344 13.863281 28.203125 13.476562 28.902344 13.296875 C 29.109375 13.226562 29.234375 13.085938 29.269531 12.867188 Z M 26.992188 13.101562 C 26.855469 12.839844 26.6875 12.601562 26.484375 12.382812 C 26.746094 12.246094 26.988281 12.078125 27.203125 11.875 C 27.34375 12.136719 27.511719 12.378906 27.710938 12.597656 C 27.449219 12.734375 27.210938 12.902344 26.992188 13.101562 Z M 26.992188 13.101562 "/></g><g clip-rule="nonzero" clip-path="url(#dae967ad8b)"><path style=" stroke:none;fill-rule:nonzero;fill:#939c8f;fill-opacity:1;" d="M 1.832031 16.476562 C 1.878906 16.695312 2.003906 16.832031 2.214844 16.894531 C 2.265625 16.910156 2.320312 16.917969 2.371094 16.917969 C 2.527344 16.917969 2.65625 16.863281 2.765625 16.753906 C 3.234375 16.210938 3.828125 15.890625 4.539062 15.792969 C 4.753906 15.746094 4.894531 15.617188 4.957031 15.40625 C 5.019531 15.195312 4.972656 15.015625 4.816406 14.859375 C 4.273438 14.386719 3.949219 13.796875 3.851562 13.085938 C 3.808594 12.867188 3.679688 12.730469 3.46875 12.667969 C 3.257812 12.605469 3.074219 12.652344 2.921875 12.808594 C 2.449219 13.351562 1.859375 13.671875 1.144531 13.773438 C 0.929688 13.816406 0.789062 13.945312 0.730469 14.15625 C 0.667969 14.367188 0.714844 14.546875 0.871094 14.703125 C 1.414062 15.175781 1.734375 15.765625 1.832031 16.476562 Z M 3.019531 14.183594 C 3.125 14.460938 3.265625 14.71875 3.4375 14.957031 C 3.164062 15.0625 2.90625 15.203125 2.667969 15.378906 C 2.558594 15.101562 2.421875 14.84375 2.246094 14.605469 C 2.523438 14.5 2.78125 14.359375 3.019531 14.183594 Z M 3.019531 14.183594 "/></g><path style=" stroke:none;fill-rule:nonzero;fill:#939c8f;fill-opacity:1;" d="M 16.140625 20.585938 L 17.109375 21.105469 C 18.265625 18.9375 19.859375 17.167969 21.890625 15.789062 C 22.886719 15.128906 23.949219 14.597656 25.078125 14.199219 L 24.710938 13.160156 C 23.496094 13.585938 22.351562 14.160156 21.28125 14.875 C 19.09375 16.351562 17.378906 18.253906 16.140625 20.585938 Z M 16.140625 20.585938 "/><path style=" stroke:none;fill-rule:nonzero;fill:#939c8f;fill-opacity:1;" d="M 5.132812 14.222656 C 5.808594 14.113281 6.488281 14.113281 7.164062 14.222656 C 11.449219 14.9375 13.527344 20.023438 13.902344 21.035156 L 14.9375 20.65625 C 14.527344 19.542969 12.230469 13.949219 7.34375 13.136719 C 6.550781 13.003906 5.753906 13.003906 4.960938 13.132812 Z M 5.132812 14.222656 "/><g clip-rule="nonzero" clip-path="url(#c19e9f8586)"><g clip-rule="nonzero" clip-path="url(#59414a8255)"><path style=" stroke:none;fill-rule:nonzero;fill:#939c8f;fill-opacity:1;" d="M 12.1875 10.066406 L 18.851562 10.066406 L 18.851562 16.503906 L 12.1875 16.503906 Z M 12.1875 10.066406 "/></g></g><g clip-rule="nonzero" clip-path="url(#835270c445)"><g clip-rule="nonzero" clip-path="url(#2197719caa)"><path style=" stroke:none;fill-rule:nonzero;fill:#939c8f;fill-opacity:1;" d="M 13.742188 5.625 L 20.40625 5.625 L 20.40625 12.0625 L 13.742188 12.0625 Z M 13.742188 5.625 "/></g></g></g></svg>